<svg width="161" height="161" viewBox="0 0 161 161" fill="none" xmlns="http://www.w3.org/2000/svg">
<g id="te 1" clip-path="url(#clip0_3_34)">
<g id="change1_1">
<path id="Vector" d="M85.4108 122.111L115.604 57.3042L66.2609 92.0128L85.4108 122.111Z" fill="white"/>
</g>
<g id="change1_2">
<path id="Vector_2" d="M33.8693 75.7705C41.7378 78.5966 49.8629 81.5159 57.8389 84.4537C58.2833 84.6174 58.4315 84.5995 58.4375 84.5989C58.444 84.5979 58.5992 84.574 59.004 84.2884C72.1979 74.9744 85.5942 65.5677 98.7349 56.3501L33.8688 75.771L33.8693 75.7705Z" fill="white"/>
</g>
<g id="change1_3">
<path id="Vector_3" d="M61.9449 111.971L65.0078 109.377L62.6314 105.647L61.9449 111.971Z" fill="white"/>
</g>
<g id="change1_4">
<path id="Vector_4" d="M80.5336 0C80.4642 0 80.3931 0 80.3242 0C59.4062 0 38.7986 8.63555 23.7514 23.7135C8.38674 39.1106 0.000539213 59.63 0.137297 81.4928C0.411899 125.357 36.5806 161.002 80.7844 161.002C80.8224 161.002 80.8582 161.002 80.8962 161.002C102.213 160.972 122.303 152.582 137.466 137.375C152.665 122.132 161.001 101.967 160.938 80.5943C160.807 36.2763 124.738 0.121933 80.5336 0ZM132.539 45.2224C125.966 59.423 119.238 73.8371 112.733 87.7769C110.274 93.0455 107.731 98.4929 105.233 103.852C103.572 107.414 101.89 111.04 100.263 114.547C97.2892 120.956 94.2143 127.583 91.1492 134.087C90.8551 134.711 89.2406 137.833 86.3497 137.968C86.2845 137.971 86.22 137.972 86.1559 137.972C83.4322 137.972 81.5441 135.296 81.1865 134.748C78.4253 130.517 75.6787 126.19 73.0223 122.005C72.2571 120.8 71.4718 119.562 70.6887 118.332C70.5107 118.483 70.2356 118.716 69.9002 119C62.4062 125.342 61.2415 126.043 60.3152 126.519C58.1303 127.64 55.1471 129.172 53.2211 127.957C52.8016 127.693 51.7537 126.87 51.4476 120.652C51.3743 119.168 51.2571 115.616 52.0169 108.107C52.152 106.773 52.3794 104.859 52.8293 101.03C53.1028 98.7016 53.3796 96.4022 53.6602 94.1223C45.1193 91.0995 36.4645 87.972 28.0929 84.9476C24.2588 83.5619 20.2939 82.1296 16.3931 80.7265C15.464 80.3922 14.485 80.0058 13.6297 79.2883C12.1248 78.0256 11.5609 76.1337 12.1215 74.2272C12.7462 72.1045 14.9126 70.4354 16.7295 69.8837C42.4818 62.0681 67.7924 54.4768 89.1543 48.0816C102.573 44.0643 114.548 40.531 125.764 37.2789C126.605 37.035 127.642 36.9294 128.611 36.9895C130.813 37.1255 131.893 38.1021 132.41 38.8976C133.636 40.783 133.336 43.4975 132.538 45.2219L132.539 45.2224Z" fill="white"/>
</g>
<g id="change2_1">
<path id="Vector_5" d="M128.612 36.9911C127.644 36.931 126.605 37.0367 125.765 37.2805C114.549 40.5326 102.574 44.066 89.1554 48.0832C67.7929 54.4785 42.4829 62.0697 16.7306 69.8853C14.9137 70.437 12.7473 72.1061 12.1226 74.2289C11.5615 76.1348 12.1253 78.0267 13.6308 79.2899C14.4855 80.0074 15.4645 80.3938 16.3941 80.7282C20.2945 82.1312 24.2593 83.564 28.094 84.9492C36.4661 87.9742 45.1209 91.1011 53.6612 94.124C53.3807 96.4038 53.1039 98.7032 52.8304 101.031C52.3805 104.86 52.1531 106.775 52.018 108.108C51.2582 115.618 51.376 119.171 51.4487 120.653C51.7548 126.871 52.8027 127.694 53.2222 127.959C55.1482 129.174 58.1319 127.642 60.3163 126.52C61.2426 126.044 62.4072 125.344 69.9013 119.001C70.2366 118.718 70.5118 118.484 70.6898 118.333C71.4729 119.564 72.2582 120.801 73.0233 122.006C75.6798 126.192 78.4264 130.519 81.1876 134.749C81.5452 135.297 83.4327 137.974 86.157 137.974C86.221 137.974 86.2856 137.972 86.3507 137.969C89.2417 137.835 90.8556 134.713 91.1503 134.089C94.2154 127.584 97.2903 120.957 100.264 114.549C101.891 111.042 103.574 107.416 105.234 103.854C107.732 98.4946 110.275 93.0472 112.734 87.7786C119.239 73.8387 125.967 59.4241 132.54 45.224C133.338 43.4996 133.638 40.7851 132.412 38.8998C131.894 38.1048 130.815 37.1282 128.612 36.9917L128.612 36.9911ZM59.004 84.2886C58.5992 84.5742 58.444 84.5986 58.4375 84.5991C58.4315 84.6002 58.2833 84.6175 57.8389 84.4539C49.8624 81.5161 41.7372 78.5968 33.8693 75.7706L98.7355 56.3497C85.5948 65.5673 72.1985 74.974 59.0046 84.288L59.004 84.2886ZM61.9449 111.972L62.6314 105.648L65.0078 109.378L61.9449 111.972V111.972ZM85.4108 122.112L66.2609 92.0137L115.604 57.3046L85.4108 122.112Z" fill="#0B569A"/>
</g>
</g>
<defs>
<clipPath id="clip0_3_34">
<rect width="161" height="161" fill="white"/>
</clipPath>
</defs>
</svg>
