<svg width="80" height="81" viewBox="0 0 80 81" fill="none" xmlns="http://www.w3.org/2000/svg">
<path d="M35.7015 0.222762C21.6062 1.6937 9.01175 10.9735 3.28632 24.1055C-0.403329 32.5834 -1.01738 42.3451 1.6025 51.3317C4.83856 62.5371 13.2095 72.0041 24.041 76.7389C32.519 80.4285 42.2807 81.0426 51.2678 78.4227C64.7192 74.5448 75.3105 63.5004 78.7872 49.7795C84.2152 28.2776 70.8971 6.29212 49.3412 1.15881C44.6063 0.0355517 40.4364 -0.259171 35.7015 0.222762ZM36.2364 25.0683C39.6586 29.6148 42.5481 33.359 42.6551 33.359C42.7621 33.359 46.3201 29.6148 50.5179 25.0683L58.1935 16.7775H62.5529L61.6168 17.7681C61.0819 18.3276 57.6052 22.0991 53.8877 26.138C50.1702 30.1764 46.533 34.1068 45.8098 34.8299L44.5272 36.1939L54.5563 49.5393C60.0656 56.894 64.5854 62.9907 64.5854 63.0998C64.5854 63.2335 61.297 63.3127 57.3099 63.3127L50.0098 63.2859L43.2167 54.1928C38.5364 47.9079 36.3434 45.2051 36.1295 45.3672C35.969 45.5009 32.1702 49.5939 27.6782 54.4603L19.5212 63.3127H17.4608C16.3119 63.3127 15.3758 63.2581 15.3758 63.1789C15.3758 63.0998 19.6282 58.4441 24.8155 52.8556C29.9788 47.2661 34.2579 42.5858 34.3098 42.5066C34.3376 42.3975 30.0852 36.5951 24.8701 29.6148C19.6549 22.6613 15.3758 16.9112 15.3758 16.8567C15.3758 16.8048 18.6643 16.7775 22.7038 16.7775H30.0307L36.2364 25.0683Z" fill="black"/>
<path d="M21.9828 20.3612C22.0892 20.5484 28.8272 29.588 36.905 40.3917L51.6144 60.0761L54.9029 60.1033C56.936 60.1033 58.1668 59.9964 58.1122 59.8359C58.0876 59.7022 51.3743 50.6637 43.2445 39.7776L28.426 19.9868H25.1108C22.3572 19.9868 21.7945 20.0414 21.9828 20.3612Z" fill="black"/>
</svg>
