<svg width="161" height="161" viewBox="0 0 161 161" fill="none" xmlns="http://www.w3.org/2000/svg">
<g id="X 1" clip-path="url(#clip0_3_45)">
<g id="Layer 1">
<path id="Vector" d="M80.5 161C36.0411 161 0 124.959 0 80.5C0 36.0411 36.0411 0 80.5 0C124.959 0 161 36.0411 161 80.5C161 124.959 124.959 161 80.5 161Z" fill="white"/>
</g>
<g id="Layer 2">
<path id="Vector_2" d="M28.7946 28.0493H59.2208L80.5 58.6341L101.779 28.0493H132.223L95.6523 80.4134L132.223 132.951H102.022L80.5 102.123L58.9778 132.951H28.7773L65.3303 80.4134L28.7946 28.0493ZM105.372 126.542H119.952L91.747 86.0232L87.703 91.8241L84.4052 96.5481L105.372 126.542ZM41.0484 126.542H55.628L76.5948 96.5307L80.5 90.9383L83.3638 86.8221L87.5468 80.8302L87.8245 80.4134L91.747 74.8209L119.934 34.458H105.146L84.4226 64.2439L80.5174 69.8538L79.4066 71.4342L75.241 77.4261L73.1582 80.4134L69.2529 86.0232L41.0484 126.542ZM70.9018 72.4416L75.0674 66.4497L76.6121 64.2439L55.8883 34.458H41.1005L69.2529 74.8209L70.9018 72.4416Z" fill="#0B569A"/>
</g>
</g>
<defs>
<clipPath id="clip0_3_45">
<rect width="161" height="161" fill="white" transform="matrix(-1 0 0 1 161 0)"/>
</clipPath>
</defs>
</svg>
